<svg width="24" height="24" viewBox="0 0 24 24" fill="none" xmlns="http://www.w3.org/2000/svg">
<path d="M12.694 11.17V11.142L12.6755 11.1705L12.694 11.17Z" fill="#433B3B"/>
<path d="M7.82001 7.10645C8.02711 7.10645 8.19501 6.93855 8.19501 6.73145C8.19501 6.52434 8.02711 6.35645 7.82001 6.35645C7.6129 6.35645 7.44501 6.52434 7.44501 6.73145C7.44501 6.93855 7.6129 7.10645 7.82001 7.10645Z" fill="#433B3B"/>
<path d="M7.82001 8.46499V15.956M16.555 15.956V11.152C16.5551 10.7696 16.4798 10.391 16.3335 10.0377C16.1872 9.68436 15.9728 9.36334 15.7024 9.09293C15.4321 8.82252 15.1111 8.60801 14.7578 8.46166C14.4045 8.31532 14.0259 8.23999 13.6435 8.23999C13.2611 8.23992 12.8824 8.3152 12.5291 8.46152C12.1757 8.60784 11.8547 8.82233 11.5843 9.09275C11.3138 9.36317 11.0994 9.68421 10.953 10.0375C10.8067 10.3909 10.7314 10.7696 10.7315 11.152M10.7315 11.152V15.956M10.7315 11.152V8.46499" stroke="#433B3B" stroke-linecap="round" stroke-linejoin="round"/>
<path d="M19.25 2.75H4.75C4.21957 2.75 3.71086 2.96071 3.33579 3.33579C2.96071 3.71086 2.75 4.21957 2.75 4.75V19.25C2.75 19.7804 2.96071 20.2891 3.33579 20.6642C3.71086 21.0393 4.21957 21.25 4.75 21.25H19.25C19.7804 21.25 20.2891 21.0393 20.6642 20.6642C21.0393 20.2891 21.25 19.7804 21.25 19.25V4.75C21.25 4.21957 21.0393 3.71086 20.6642 3.33579C20.2891 2.96071 19.7804 2.75 19.25 2.75Z" stroke="#433B3B" stroke-linecap="round" stroke-linejoin="round"/>
</svg>
