<svg width="24" height="24" viewBox="0 0 24 24" fill="none" xmlns="http://www.w3.org/2000/svg">
<path d="M19.75 7.75H15.25C14.9848 7.75 14.7304 7.64464 14.5429 7.45711C14.3554 7.26957 14.25 7.01522 14.25 6.75V2.25M19.75 7.75V20.75C19.75 21.0152 19.6446 21.2696 19.4571 21.4571C19.2696 21.6446 19.0152 21.75 18.75 21.75H5.25C4.98478 21.75 4.73043 21.6446 4.54289 21.4571C4.35536 21.2696 4.25 21.0152 4.25 20.75V3.25C4.25 2.98478 4.35536 2.73043 4.54289 2.54289C4.73043 2.35536 4.98478 2.25 5.25 2.25H14.25M19.75 7.75L14.25 2.25" stroke="black" stroke-width="0.5" stroke-linecap="round" stroke-linejoin="round"/>
<path d="M17.2154 12.2675H14.9694V16.75M14.9694 14.5085H16.4349M6.78492 16.7415V12.2585H8.29342C8.69244 12.2584 9.07517 12.4167 9.35741 12.6988C9.63965 12.9809 9.79829 13.3635 9.79842 13.7625C9.79856 14.1615 9.64017 14.5442 9.35812 14.8265C9.07606 15.1087 8.69344 15.2674 8.29442 15.2675H6.78442M10.8769 16.75V12.25H11.6399C12.2367 12.25 12.809 12.4871 13.2309 12.909C13.6529 13.331 13.8899 13.9033 13.8899 14.5C13.8899 15.0967 13.6529 15.669 13.2309 16.091C12.809 16.5129 12.2367 16.75 11.6399 16.75H10.8769Z" stroke="black" stroke-width="0.5" stroke-linecap="round" stroke-linejoin="round"/>
</svg>
