<svg width="32" height="32" viewBox="0 0 32 32" fill="none" xmlns="http://www.w3.org/2000/svg">
<rect width="32" height="32" fill="white"/>
<path d="M12.2286 7.3518C12.2179 7.35538 12.208 7.36087 12.1993 7.36801C11.3255 7.96944 10.612 8.76986 10.1197 9.70117C9.62734 10.6325 9.37064 11.6672 9.37143 12.7172C9.37116 13.8686 9.68005 14.9996 10.2668 15.9955C10.8535 16.9914 11.6972 17.8167 12.7122 18.3878C13.2334 18.6823 13.6101 19.2478 13.5726 19.9025V19.9043L13.2827 25.3597C13.2733 25.5386 13.1921 25.7065 13.057 25.8264C12.9218 25.9463 12.7439 26.0084 12.5623 25.9991C12.3807 25.9898 12.2102 25.9098 12.0885 25.7767C11.9668 25.6436 11.9037 25.4684 11.9131 25.2895L12.203 19.8305V19.8269C12.2085 19.7458 12.16 19.6332 12.0311 19.5603C10.8063 18.871 9.78831 17.8749 9.08038 16.6732C8.37244 15.4714 7.99972 14.1066 8 12.7172C7.99911 11.45 8.30885 10.2014 8.9029 9.0774C9.49695 7.95342 10.3577 6.98733 11.4121 6.26126C11.6381 6.10174 11.9067 6.01123 12.1846 6.00098C12.4624 5.99073 12.7372 6.0612 12.9746 6.20362C13.4171 6.46658 13.7143 6.95557 13.7143 7.5184V11.7635C13.7143 11.802 13.7243 11.8398 13.7433 11.8734C13.7624 11.9069 13.7898 11.9352 13.8231 11.9553L15.8802 13.2025C15.9534 13.2476 16.0466 13.2476 16.1198 13.2025L18.1769 11.9553C18.2102 11.9352 18.2376 11.9069 18.2567 11.8734C18.2757 11.8398 18.2857 11.802 18.2857 11.7635V7.5193C18.2857 6.95557 18.5829 6.46658 19.0263 6.20362C19.2637 6.06139 19.5382 5.99103 19.8159 6.00128C20.0935 6.01152 20.362 6.10193 20.5879 6.26126C21.6424 6.98742 22.5033 7.95365 23.0973 9.0778C23.6914 10.2019 24.001 11.4508 24 12.7181C24 14.1074 23.6271 15.4721 22.919 16.6737C22.2109 17.8753 21.1928 18.8712 19.968 19.5603C19.84 19.6332 19.7915 19.7458 19.7961 19.8269V19.8305L20.0869 25.2895C20.0915 25.378 20.0785 25.4667 20.0484 25.5503C20.0183 25.6339 19.9718 25.7108 19.9115 25.7767C19.8512 25.8426 19.7784 25.8961 19.6971 25.9343C19.6158 25.9725 19.5276 25.9945 19.4377 25.9991C19.3478 26.0037 19.2578 25.9908 19.1729 25.9612C19.0881 25.9315 19.0099 25.8857 18.943 25.8264C18.8761 25.767 18.8218 25.6952 18.783 25.6152C18.7443 25.5351 18.7219 25.4483 18.7173 25.3597L18.4274 19.9043V19.9025C18.3899 19.2478 18.7657 18.6823 19.2869 18.3878C20.3021 17.8168 21.146 16.9915 21.7328 15.9956C22.3197 14.9997 22.6287 13.8687 22.6286 12.7172C22.6294 11.6672 22.3727 10.6325 21.8803 9.70117C21.388 8.76986 20.6745 7.96944 19.8007 7.36801C19.792 7.36087 19.7821 7.35538 19.7714 7.3518L19.7623 7.3509C19.7595 7.3509 19.7495 7.3509 19.7339 7.35991C19.701 7.37972 19.6571 7.43105 19.6571 7.5193V11.7626C19.6571 12.3101 19.3691 12.818 18.8955 13.1044L16.8384 14.3516C16.5863 14.5044 16.296 14.5853 16 14.5853C15.704 14.5853 15.4137 14.5044 15.1616 14.3516L13.1045 13.1053C12.8719 12.9644 12.6798 12.7672 12.5465 12.5325C12.4132 12.2977 12.3431 12.0333 12.3429 11.7644V7.5184C12.3429 7.43015 12.299 7.37882 12.2661 7.35991C12.2572 7.35509 12.2477 7.35174 12.2377 7.35L12.2286 7.3518Z" fill="#9A9A9A"/>
</svg>
